<svg width="96" height="55" viewBox="0 0 96 55" fill="none" xmlns="http://www.w3.org/2000/svg">
<path fill-rule="evenodd" clip-rule="evenodd" d="M54.9494 31.6733C52.9103 37.2062 49.1557 42.4999 43.8707 46.6926C30.7551 57.0973 13.1806 56.781 4.6171 45.9863C-3.94644 35.1915 -0.256244 18.006 12.8594 7.60129C25.975 -2.80341 43.5494 -2.48721 52.113 8.30755C55.8682 13.0412 57.2671 19.0038 56.5482 25.0847H50.726V18.4961H44.1374V25.0847H37.5488V31.6733H44.1374V38.2619H50.726V31.6733H54.9494Z" fill="url(#paint0_angular_98_59)"/>
<path fill-rule="evenodd" clip-rule="evenodd" d="M43.871 46.6921C40.4786 42.4158 39.0092 37.1365 39.2869 31.6731H44.1375V38.2618H50.7261V31.6731H57.3147V25.0845H50.7261V18.4959H44.1375V25.0845H40.4467C42.2985 18.9227 46.2707 12.9421 52.1133 8.3071C65.2289 -2.0976 82.8034 -1.7814 91.3669 9.01336C99.9304 19.8081 96.2402 36.9937 83.1246 47.3984C70.009 57.8031 52.4345 57.4869 43.871 46.6921Z" fill="url(#paint1_angular_98_59)"/>
<defs>
<radialGradient id="paint0_angular_98_59" cx="0" cy="0" r="1" gradientUnits="userSpaceOnUse" gradientTransform="translate(28.3652 27.1469) rotate(51.5748) scale(24.9491 30.3131)">
<stop stop-color="#BA1607"/>
<stop offset="0.75" stop-color="#007FFF"/>
<stop offset="1" stop-color="#007FFF"/>
</radialGradient>
<radialGradient id="paint1_angular_98_59" cx="0" cy="0" r="1" gradientUnits="userSpaceOnUse" gradientTransform="translate(67.619 27.8527) rotate(-128.425) scale(24.9491 30.3131)">
<stop stop-color="#BA1607"/>
<stop offset="0.760417" stop-color="#007FFF"/>
<stop offset="1" stop-color="#007FFF"/>
</radialGradient>
</defs>
</svg>
