<svg width="100" height="100" viewBox="0 0 100 100" fill="none" xmlns="http://www.w3.org/2000/svg">
<g filter="url(#filter0_i_708_6518)">
<path fill-rule="evenodd" clip-rule="evenodd" d="M18.7051 19.4243V80.4783H28.3343V32.8246L36.3108 42.0201L36.3137 42.0167L43.3617 50.1418L34.124 60.7912H47.7417L50.1706 57.9912L52.5994 60.7912H66.2171L56.9794 50.1418L64.0274 42.0167L64.0303 42.02L71.6659 33.2181V80.4782H81.2951V19.4243H70.0132L60.3868 30.5218L60.3838 30.5183L50.1706 42.2924L39.9577 30.5188L39.9548 30.5222L30.3285 19.4243H18.7051ZM51.4389 45.6834H48.2015V48.9208H44.9641V52.1582H48.2015V55.3956H51.4389V52.1582H54.6763V48.9208H51.4389V45.6834Z" fill="black"/>
</g>
<g filter="url(#filter1_i_708_6518)">
<circle cx="50" cy="50" r="48" stroke="black" stroke-width="4"/>
</g>
<defs>
<filter id="filter0_i_708_6518" x="18.7051" y="19.4243" width="62.5901" height="65.0542" filterUnits="userSpaceOnUse" color-interpolation-filters="sRGB">
<feFlood flood-opacity="0" result="BackgroundImageFix"/>
<feBlend mode="normal" in="SourceGraphic" in2="BackgroundImageFix" result="shape"/>
<feColorMatrix in="SourceAlpha" type="matrix" values="0 0 0 0 0 0 0 0 0 0 0 0 0 0 0 0 0 0 127 0" result="hardAlpha"/>
<feOffset dy="4"/>
<feGaussianBlur stdDeviation="2"/>
<feComposite in2="hardAlpha" operator="arithmetic" k2="-1" k3="1"/>
<feColorMatrix type="matrix" values="0 0 0 0 0 0 0 0 0 0 0 0 0 0 0 0 0 0 0.25 0"/>
<feBlend mode="normal" in2="shape" result="effect1_innerShadow_708_6518"/>
</filter>
<filter id="filter1_i_708_6518" x="0" y="0" width="100" height="104" filterUnits="userSpaceOnUse" color-interpolation-filters="sRGB">
<feFlood flood-opacity="0" result="BackgroundImageFix"/>
<feBlend mode="normal" in="SourceGraphic" in2="BackgroundImageFix" result="shape"/>
<feColorMatrix in="SourceAlpha" type="matrix" values="0 0 0 0 0 0 0 0 0 0 0 0 0 0 0 0 0 0 127 0" result="hardAlpha"/>
<feMorphology radius="1" operator="erode" in="SourceAlpha" result="effect1_innerShadow_708_6518"/>
<feOffset dy="4"/>
<feGaussianBlur stdDeviation="2"/>
<feComposite in2="hardAlpha" operator="arithmetic" k2="-1" k3="1"/>
<feColorMatrix type="matrix" values="0 0 0 0 0 0 0 0 0 0 0 0 0 0 0 0 0 0 0.25 0"/>
<feBlend mode="normal" in2="shape" result="effect1_innerShadow_708_6518"/>
</filter>
</defs>
</svg>
